<mxfile host="app.diagrams.net" modified="2023-06-06T02:44:55.245Z" agent="Mozilla/5.0 (Windows NT 10.0; Win64; x64) AppleWebKit/537.36 (KHTML, like Gecko) Chrome/113.0.0.0 Safari/537.36" etag="pfvOdFvfqPPOufAEgmRS" version="21.3.6" type="github">
  <diagram name="第 1 页" id="UaIOHVlHzPApeq9zFzyf">
    <mxGraphModel dx="979" dy="543" grid="1" gridSize="10" guides="1" tooltips="1" connect="1" arrows="1" fold="1" page="1" pageScale="1" pageWidth="827" pageHeight="1169" math="0" shadow="0">
      <root>
        <mxCell id="0" />
        <mxCell id="1" parent="0" />
        <mxCell id="Lcm0hkVv3pNYCc9iG2gG-14" value="OplusMirage&lt;br&gt;WindowManagerService" style="shape=umlLifeline;perimeter=lifelinePerimeter;whiteSpace=wrap;html=1;container=0;dropTarget=0;collapsible=0;recursiveResize=0;outlineConnect=0;portConstraint=eastwest;newEdgeStyle={&quot;edgeStyle&quot;:&quot;elbowEdgeStyle&quot;,&quot;elbow&quot;:&quot;vertical&quot;,&quot;curved&quot;:0,&quot;rounded&quot;:0};" vertex="1" parent="1">
          <mxGeometry x="346" y="18" width="130" height="1152" as="geometry" />
        </mxCell>
        <mxCell id="Lcm0hkVv3pNYCc9iG2gG-15" value="" style="html=1;points=[];perimeter=orthogonalPerimeter;outlineConnect=0;targetShapes=umlLifeline;portConstraint=eastwest;newEdgeStyle={&quot;edgeStyle&quot;:&quot;elbowEdgeStyle&quot;,&quot;elbow&quot;:&quot;vertical&quot;,&quot;curved&quot;:0,&quot;rounded&quot;:0};" vertex="1" parent="Lcm0hkVv3pNYCc9iG2gG-14">
          <mxGeometry x="54" y="70" width="22" height="970" as="geometry" />
        </mxCell>
        <mxCell id="Lcm0hkVv3pNYCc9iG2gG-18" value="" style="html=1;points=[];perimeter=orthogonalPerimeter;outlineConnect=0;targetShapes=umlLifeline;portConstraint=eastwest;newEdgeStyle={&quot;edgeStyle&quot;:&quot;elbowEdgeStyle&quot;,&quot;elbow&quot;:&quot;vertical&quot;,&quot;curved&quot;:0,&quot;rounded&quot;:0};" vertex="1" parent="Lcm0hkVv3pNYCc9iG2gG-14">
          <mxGeometry x="71" y="102" width="10" height="40" as="geometry" />
        </mxCell>
        <mxCell id="Lcm0hkVv3pNYCc9iG2gG-19" value="1. onMirageDisplayRemoved()" style="html=1;align=left;spacingLeft=2;endArrow=block;rounded=0;edgeStyle=orthogonalEdgeStyle;curved=0;rounded=0;" edge="1" parent="Lcm0hkVv3pNYCc9iG2gG-14" target="Lcm0hkVv3pNYCc9iG2gG-18">
          <mxGeometry relative="1" as="geometry">
            <mxPoint x="76" y="82" as="sourcePoint" />
            <Array as="points">
              <mxPoint x="106" y="112" />
            </Array>
          </mxGeometry>
        </mxCell>
        <mxCell id="Lcm0hkVv3pNYCc9iG2gG-42" value="" style="html=1;points=[];perimeter=orthogonalPerimeter;outlineConnect=0;targetShapes=umlLifeline;portConstraint=eastwest;newEdgeStyle={&quot;edgeStyle&quot;:&quot;elbowEdgeStyle&quot;,&quot;elbow&quot;:&quot;vertical&quot;,&quot;curved&quot;:0,&quot;rounded&quot;:0};" vertex="1" parent="Lcm0hkVv3pNYCc9iG2gG-14">
          <mxGeometry x="71" y="182" width="10" height="40" as="geometry" />
        </mxCell>
        <mxCell id="Lcm0hkVv3pNYCc9iG2gG-43" value="2.1 moveStackToDefaultDisplay(tasks)" style="html=1;align=left;spacingLeft=2;endArrow=block;rounded=0;edgeStyle=orthogonalEdgeStyle;curved=0;rounded=0;" edge="1" target="Lcm0hkVv3pNYCc9iG2gG-42" parent="Lcm0hkVv3pNYCc9iG2gG-14">
          <mxGeometry relative="1" as="geometry">
            <mxPoint x="76" y="162" as="sourcePoint" />
            <Array as="points">
              <mxPoint x="106" y="192" />
            </Array>
          </mxGeometry>
        </mxCell>
        <mxCell id="Lcm0hkVv3pNYCc9iG2gG-49" value="" style="html=1;points=[];perimeter=orthogonalPerimeter;outlineConnect=0;targetShapes=umlLifeline;portConstraint=eastwest;newEdgeStyle={&quot;edgeStyle&quot;:&quot;elbowEdgeStyle&quot;,&quot;elbow&quot;:&quot;vertical&quot;,&quot;curved&quot;:0,&quot;rounded&quot;:0};" vertex="1" parent="Lcm0hkVv3pNYCc9iG2gG-14">
          <mxGeometry x="71" y="392" width="10" height="40" as="geometry" />
        </mxCell>
        <mxCell id="Lcm0hkVv3pNYCc9iG2gG-50" value="3.1 finishTasksImmediately(tasks)" style="html=1;align=left;spacingLeft=2;endArrow=block;rounded=0;edgeStyle=orthogonalEdgeStyle;curved=0;rounded=0;" edge="1" target="Lcm0hkVv3pNYCc9iG2gG-49" parent="Lcm0hkVv3pNYCc9iG2gG-14">
          <mxGeometry relative="1" as="geometry">
            <mxPoint x="76" y="372" as="sourcePoint" />
            <Array as="points">
              <mxPoint x="106" y="402" />
            </Array>
          </mxGeometry>
        </mxCell>
        <mxCell id="Lcm0hkVv3pNYCc9iG2gG-59" value="" style="html=1;points=[];perimeter=orthogonalPerimeter;outlineConnect=0;targetShapes=umlLifeline;portConstraint=eastwest;newEdgeStyle={&quot;edgeStyle&quot;:&quot;elbowEdgeStyle&quot;,&quot;elbow&quot;:&quot;vertical&quot;,&quot;curved&quot;:0,&quot;rounded&quot;:0};" vertex="1" parent="Lcm0hkVv3pNYCc9iG2gG-14">
          <mxGeometry x="71" y="652" width="10" height="40" as="geometry" />
        </mxCell>
        <mxCell id="Lcm0hkVv3pNYCc9iG2gG-60" value="4.1 finishAndKillImmediately(tasks)" style="html=1;align=left;spacingLeft=2;endArrow=block;rounded=0;edgeStyle=orthogonalEdgeStyle;curved=0;rounded=0;" edge="1" target="Lcm0hkVv3pNYCc9iG2gG-59" parent="Lcm0hkVv3pNYCc9iG2gG-14">
          <mxGeometry relative="1" as="geometry">
            <mxPoint x="76" y="632" as="sourcePoint" />
            <Array as="points">
              <mxPoint x="106" y="662" />
            </Array>
          </mxGeometry>
        </mxCell>
        <mxCell id="Lcm0hkVv3pNYCc9iG2gG-21" value="RootWindowContainer" style="shape=umlLifeline;perimeter=lifelinePerimeter;whiteSpace=wrap;html=1;container=0;dropTarget=0;collapsible=0;recursiveResize=0;outlineConnect=0;portConstraint=eastwest;newEdgeStyle={&quot;edgeStyle&quot;:&quot;elbowEdgeStyle&quot;,&quot;elbow&quot;:&quot;vertical&quot;,&quot;curved&quot;:0,&quot;rounded&quot;:0};" vertex="1" parent="1">
          <mxGeometry x="593" y="17" width="130" height="1153" as="geometry" />
        </mxCell>
        <mxCell id="Lcm0hkVv3pNYCc9iG2gG-22" value="" style="html=1;points=[];perimeter=orthogonalPerimeter;outlineConnect=0;targetShapes=umlLifeline;portConstraint=eastwest;newEdgeStyle={&quot;edgeStyle&quot;:&quot;elbowEdgeStyle&quot;,&quot;elbow&quot;:&quot;vertical&quot;,&quot;curved&quot;:0,&quot;rounded&quot;:0};" vertex="1" parent="Lcm0hkVv3pNYCc9iG2gG-21">
          <mxGeometry x="54" y="223" width="22" height="127" as="geometry" />
        </mxCell>
        <mxCell id="Lcm0hkVv3pNYCc9iG2gG-51" value="" style="html=1;points=[];perimeter=orthogonalPerimeter;outlineConnect=0;targetShapes=umlLifeline;portConstraint=eastwest;newEdgeStyle={&quot;edgeStyle&quot;:&quot;elbowEdgeStyle&quot;,&quot;elbow&quot;:&quot;vertical&quot;,&quot;curved&quot;:0,&quot;rounded&quot;:0};" vertex="1" parent="Lcm0hkVv3pNYCc9iG2gG-21">
          <mxGeometry x="54" y="433" width="22" height="67" as="geometry" />
        </mxCell>
        <mxCell id="Lcm0hkVv3pNYCc9iG2gG-62" value="" style="html=1;points=[];perimeter=orthogonalPerimeter;outlineConnect=0;targetShapes=umlLifeline;portConstraint=eastwest;newEdgeStyle={&quot;edgeStyle&quot;:&quot;elbowEdgeStyle&quot;,&quot;elbow&quot;:&quot;vertical&quot;,&quot;curved&quot;:0,&quot;rounded&quot;:0};" vertex="1" parent="Lcm0hkVv3pNYCc9iG2gG-21">
          <mxGeometry x="54" y="693" width="22" height="67" as="geometry" />
        </mxCell>
        <mxCell id="Lcm0hkVv3pNYCc9iG2gG-27" value="Task" style="shape=umlLifeline;perimeter=lifelinePerimeter;whiteSpace=wrap;html=1;container=0;dropTarget=0;collapsible=0;recursiveResize=0;outlineConnect=0;portConstraint=eastwest;newEdgeStyle={&quot;edgeStyle&quot;:&quot;elbowEdgeStyle&quot;,&quot;elbow&quot;:&quot;vertical&quot;,&quot;curved&quot;:0,&quot;rounded&quot;:0};" vertex="1" parent="1">
          <mxGeometry x="750" y="18" width="89" height="1152" as="geometry" />
        </mxCell>
        <mxCell id="Lcm0hkVv3pNYCc9iG2gG-28" value="" style="html=1;points=[];perimeter=orthogonalPerimeter;outlineConnect=0;targetShapes=umlLifeline;portConstraint=eastwest;newEdgeStyle={&quot;edgeStyle&quot;:&quot;elbowEdgeStyle&quot;,&quot;elbow&quot;:&quot;vertical&quot;,&quot;curved&quot;:0,&quot;rounded&quot;:0};" vertex="1" parent="Lcm0hkVv3pNYCc9iG2gG-27">
          <mxGeometry x="33.5" y="499" width="22" height="41" as="geometry" />
        </mxCell>
        <mxCell id="Lcm0hkVv3pNYCc9iG2gG-57" value="" style="html=1;points=[];perimeter=orthogonalPerimeter;outlineConnect=0;targetShapes=umlLifeline;portConstraint=eastwest;newEdgeStyle={&quot;edgeStyle&quot;:&quot;elbowEdgeStyle&quot;,&quot;elbow&quot;:&quot;vertical&quot;,&quot;curved&quot;:0,&quot;rounded&quot;:0};" vertex="1" parent="Lcm0hkVv3pNYCc9iG2gG-27">
          <mxGeometry x="33.5" y="567" width="22" height="41" as="geometry" />
        </mxCell>
        <mxCell id="Lcm0hkVv3pNYCc9iG2gG-65" value="" style="html=1;points=[];perimeter=orthogonalPerimeter;outlineConnect=0;targetShapes=umlLifeline;portConstraint=eastwest;newEdgeStyle={&quot;edgeStyle&quot;:&quot;elbowEdgeStyle&quot;,&quot;elbow&quot;:&quot;vertical&quot;,&quot;curved&quot;:0,&quot;rounded&quot;:0};" vertex="1" parent="Lcm0hkVv3pNYCc9iG2gG-27">
          <mxGeometry x="34.5" y="763" width="22" height="41" as="geometry" />
        </mxCell>
        <mxCell id="Lcm0hkVv3pNYCc9iG2gG-66" value="" style="html=1;points=[];perimeter=orthogonalPerimeter;outlineConnect=0;targetShapes=umlLifeline;portConstraint=eastwest;newEdgeStyle={&quot;edgeStyle&quot;:&quot;elbowEdgeStyle&quot;,&quot;elbow&quot;:&quot;vertical&quot;,&quot;curved&quot;:0,&quot;rounded&quot;:0};" vertex="1" parent="Lcm0hkVv3pNYCc9iG2gG-27">
          <mxGeometry x="34.5" y="831" width="22" height="41" as="geometry" />
        </mxCell>
        <mxCell id="Lcm0hkVv3pNYCc9iG2gG-34" value="RecentTask" style="shape=umlLifeline;perimeter=lifelinePerimeter;whiteSpace=wrap;html=1;container=0;dropTarget=0;collapsible=0;recursiveResize=0;outlineConnect=0;portConstraint=eastwest;newEdgeStyle={&quot;edgeStyle&quot;:&quot;elbowEdgeStyle&quot;,&quot;elbow&quot;:&quot;vertical&quot;,&quot;curved&quot;:0,&quot;rounded&quot;:0};" vertex="1" parent="1">
          <mxGeometry x="860" y="18" width="130" height="1152" as="geometry" />
        </mxCell>
        <mxCell id="Lcm0hkVv3pNYCc9iG2gG-35" value="" style="html=1;points=[];perimeter=orthogonalPerimeter;outlineConnect=0;targetShapes=umlLifeline;portConstraint=eastwest;newEdgeStyle={&quot;edgeStyle&quot;:&quot;elbowEdgeStyle&quot;,&quot;elbow&quot;:&quot;vertical&quot;,&quot;curved&quot;:0,&quot;rounded&quot;:0};" vertex="1" parent="Lcm0hkVv3pNYCc9iG2gG-34">
          <mxGeometry x="54" y="512" width="22" height="72" as="geometry" />
        </mxCell>
        <mxCell id="Lcm0hkVv3pNYCc9iG2gG-69" value="" style="html=1;points=[];perimeter=orthogonalPerimeter;outlineConnect=0;targetShapes=umlLifeline;portConstraint=eastwest;newEdgeStyle={&quot;edgeStyle&quot;:&quot;elbowEdgeStyle&quot;,&quot;elbow&quot;:&quot;vertical&quot;,&quot;curved&quot;:0,&quot;rounded&quot;:0};" vertex="1" parent="Lcm0hkVv3pNYCc9iG2gG-34">
          <mxGeometry x="53" y="775" width="22" height="72" as="geometry" />
        </mxCell>
        <mxCell id="Lcm0hkVv3pNYCc9iG2gG-38" value="&lt;div style=&quot;text-align: left;&quot;&gt;根据castMode确定移除后的栈策略&lt;/div&gt;&lt;div style=&quot;text-align: left;&quot;&gt;&lt;b&gt;PC:&lt;/b&gt; finishTasksImmediately&lt;/div&gt;&lt;div style=&quot;text-align: left;&quot;&gt;&lt;b&gt;TV: &lt;/b&gt;moveStacksToDefaultDisplay&lt;/div&gt;&lt;div style=&quot;text-align: left;&quot;&gt;&lt;b&gt;CAR: &lt;/b&gt;finishAndKillImmediately&lt;/div&gt;&lt;div style=&quot;text-align: left;&quot;&gt;&lt;b&gt;APPSHARE: &lt;/b&gt;finishTasksImmediately&lt;br&gt;&lt;/div&gt;&lt;div style=&quot;text-align: left;&quot;&gt;&lt;b&gt;BackgroundStream:&lt;/b&gt; shouldConsiderSplitScreenModeOnDisplayRemoved&lt;/div&gt;" style="shape=note;size=20;whiteSpace=wrap;html=1;fillColor=#FFFF00;" vertex="1" parent="1">
          <mxGeometry x="80" y="80" width="310" height="110" as="geometry" />
        </mxCell>
        <mxCell id="Lcm0hkVv3pNYCc9iG2gG-44" value="&lt;div style=&quot;text-align: left;&quot;&gt;1. 策略一，将任务栈移到主屏&lt;/div&gt;" style="shape=note;size=20;whiteSpace=wrap;html=1;fillColor=#FFFF00;" vertex="1" parent="1">
          <mxGeometry x="180" y="200" width="200" height="30" as="geometry" />
        </mxCell>
        <mxCell id="Lcm0hkVv3pNYCc9iG2gG-45" value="2.2 getRootTask(id)" style="html=1;verticalAlign=bottom;endArrow=block;edgeStyle=elbowEdgeStyle;elbow=vertical;curved=0;rounded=0;" edge="1" parent="1">
          <mxGeometry width="80" relative="1" as="geometry">
            <mxPoint x="425" y="260" as="sourcePoint" />
            <mxPoint x="645" y="260" as="targetPoint" />
          </mxGeometry>
        </mxCell>
        <mxCell id="Lcm0hkVv3pNYCc9iG2gG-46" value="Task" style="html=1;verticalAlign=bottom;endArrow=open;dashed=1;endSize=8;edgeStyle=elbowEdgeStyle;elbow=vertical;curved=0;rounded=0;" edge="1" parent="1">
          <mxGeometry relative="1" as="geometry">
            <mxPoint x="642" y="290" as="sourcePoint" />
            <mxPoint x="422" y="290" as="targetPoint" />
          </mxGeometry>
        </mxCell>
        <mxCell id="Lcm0hkVv3pNYCc9iG2gG-47" value="2.3 moveRootTaskToDisplay()" style="html=1;verticalAlign=bottom;endArrow=block;edgeStyle=elbowEdgeStyle;elbow=vertical;curved=0;rounded=0;" edge="1" parent="1">
          <mxGeometry width="80" relative="1" as="geometry">
            <mxPoint x="425" y="320" as="sourcePoint" />
            <mxPoint x="645" y="320" as="targetPoint" />
          </mxGeometry>
        </mxCell>
        <mxCell id="Lcm0hkVv3pNYCc9iG2gG-48" value="2.4 ensureAcctivitiesVisible()" style="html=1;verticalAlign=bottom;endArrow=block;edgeStyle=elbowEdgeStyle;elbow=vertical;curved=0;rounded=0;" edge="1" parent="1">
          <mxGeometry width="80" relative="1" as="geometry">
            <mxPoint x="425" y="350" as="sourcePoint" />
            <mxPoint x="645" y="350" as="targetPoint" />
          </mxGeometry>
        </mxCell>
        <mxCell id="Lcm0hkVv3pNYCc9iG2gG-52" value="&lt;div style=&quot;text-align: left;&quot;&gt;2. 策略二，立即结束任务&lt;/div&gt;" style="shape=note;size=20;whiteSpace=wrap;html=1;fillColor=#FFFF00;" vertex="1" parent="1">
          <mxGeometry x="180" y="390" width="200" height="30" as="geometry" />
        </mxCell>
        <mxCell id="Lcm0hkVv3pNYCc9iG2gG-53" value="3.2 getRootTask(id)" style="html=1;verticalAlign=bottom;endArrow=block;edgeStyle=elbowEdgeStyle;elbow=vertical;curved=0;rounded=0;" edge="1" parent="1">
          <mxGeometry width="80" relative="1" as="geometry">
            <mxPoint x="424" y="470" as="sourcePoint" />
            <mxPoint x="644" y="470" as="targetPoint" />
          </mxGeometry>
        </mxCell>
        <mxCell id="Lcm0hkVv3pNYCc9iG2gG-54" value="Task" style="html=1;verticalAlign=bottom;endArrow=open;dashed=1;endSize=8;edgeStyle=elbowEdgeStyle;elbow=vertical;curved=0;rounded=0;" edge="1" parent="1">
          <mxGeometry relative="1" as="geometry">
            <mxPoint x="643" y="500.24" as="sourcePoint" />
            <mxPoint x="423" y="500.24" as="targetPoint" />
          </mxGeometry>
        </mxCell>
        <mxCell id="Lcm0hkVv3pNYCc9iG2gG-55" value="3.3 removedFromReccents()" style="html=1;verticalAlign=bottom;endArrow=block;edgeStyle=elbowEdgeStyle;elbow=vertical;curved=0;rounded=0;" edge="1" parent="1">
          <mxGeometry width="80" relative="1" as="geometry">
            <mxPoint x="422" y="540" as="sourcePoint" />
            <mxPoint x="782" y="540" as="targetPoint" />
          </mxGeometry>
        </mxCell>
        <mxCell id="Lcm0hkVv3pNYCc9iG2gG-56" value="3.4 mRecentTask.remove(task)&amp;nbsp;" style="html=1;verticalAlign=bottom;endArrow=block;edgeStyle=elbowEdgeStyle;elbow=vertical;curved=0;rounded=0;" edge="1" parent="1">
          <mxGeometry width="80" relative="1" as="geometry">
            <mxPoint x="425" y="572" as="sourcePoint" />
            <mxPoint x="912" y="572" as="targetPoint" />
          </mxGeometry>
        </mxCell>
        <mxCell id="Lcm0hkVv3pNYCc9iG2gG-58" value="3.5 remove()" style="html=1;verticalAlign=bottom;endArrow=block;edgeStyle=elbowEdgeStyle;elbow=vertical;curved=0;rounded=0;" edge="1" parent="1">
          <mxGeometry width="80" relative="1" as="geometry">
            <mxPoint x="423" y="604" as="sourcePoint" />
            <mxPoint x="783" y="604" as="targetPoint" />
          </mxGeometry>
        </mxCell>
        <mxCell id="Lcm0hkVv3pNYCc9iG2gG-61" value="&lt;div style=&quot;text-align: left;&quot;&gt;3. 策略三，在多开白名单立即结束任务，不在多开白名单结束任务后还需要任务所在杀死进程&lt;/div&gt;" style="shape=note;size=20;whiteSpace=wrap;html=1;fillColor=#FFFF00;" vertex="1" parent="1">
          <mxGeometry x="180" y="630" width="200" height="60" as="geometry" />
        </mxCell>
        <mxCell id="Lcm0hkVv3pNYCc9iG2gG-63" value="4.2 getRootTask(id)" style="html=1;verticalAlign=bottom;endArrow=block;edgeStyle=elbowEdgeStyle;elbow=vertical;curved=0;rounded=0;" edge="1" parent="1">
          <mxGeometry width="80" relative="1" as="geometry">
            <mxPoint x="424" y="730.24" as="sourcePoint" />
            <mxPoint x="644" y="730.24" as="targetPoint" />
          </mxGeometry>
        </mxCell>
        <mxCell id="Lcm0hkVv3pNYCc9iG2gG-64" value="Task" style="html=1;verticalAlign=bottom;endArrow=open;dashed=1;endSize=8;edgeStyle=elbowEdgeStyle;elbow=vertical;curved=0;rounded=0;" edge="1" parent="1">
          <mxGeometry relative="1" as="geometry">
            <mxPoint x="642" y="756.14" as="sourcePoint" />
            <mxPoint x="422" y="756.14" as="targetPoint" />
          </mxGeometry>
        </mxCell>
        <mxCell id="Lcm0hkVv3pNYCc9iG2gG-67" value="3.3 removedFromReccents()" style="html=1;verticalAlign=bottom;endArrow=block;edgeStyle=elbowEdgeStyle;elbow=vertical;curved=0;rounded=0;" edge="1" parent="1">
          <mxGeometry width="80" relative="1" as="geometry">
            <mxPoint x="423" y="804" as="sourcePoint" />
            <mxPoint x="783" y="804" as="targetPoint" />
          </mxGeometry>
        </mxCell>
        <mxCell id="Lcm0hkVv3pNYCc9iG2gG-68" value="3.5 remove()" style="html=1;verticalAlign=bottom;endArrow=block;edgeStyle=elbowEdgeStyle;elbow=vertical;curved=0;rounded=0;" edge="1" parent="1">
          <mxGeometry width="80" relative="1" as="geometry">
            <mxPoint x="424" y="868" as="sourcePoint" />
            <mxPoint x="784" y="868" as="targetPoint" />
          </mxGeometry>
        </mxCell>
        <mxCell id="Lcm0hkVv3pNYCc9iG2gG-70" value="3.4 mRecentTask.remove(task)&amp;nbsp;" style="html=1;verticalAlign=bottom;endArrow=block;edgeStyle=elbowEdgeStyle;elbow=vertical;curved=0;rounded=0;" edge="1" parent="1">
          <mxGeometry width="80" relative="1" as="geometry">
            <mxPoint x="424" y="835" as="sourcePoint" />
            <mxPoint x="911" y="835" as="targetPoint" />
          </mxGeometry>
        </mxCell>
        <mxCell id="Lcm0hkVv3pNYCc9iG2gG-71" value="ActivityManagerService" style="shape=umlLifeline;perimeter=lifelinePerimeter;whiteSpace=wrap;html=1;container=0;dropTarget=0;collapsible=0;recursiveResize=0;outlineConnect=0;portConstraint=eastwest;newEdgeStyle={&quot;edgeStyle&quot;:&quot;elbowEdgeStyle&quot;,&quot;elbow&quot;:&quot;vertical&quot;,&quot;curved&quot;:0,&quot;rounded&quot;:0};" vertex="1" parent="1">
          <mxGeometry x="1010" y="17.5" width="130" height="1152.5" as="geometry" />
        </mxCell>
        <mxCell id="Lcm0hkVv3pNYCc9iG2gG-73" value="" style="html=1;points=[];perimeter=orthogonalPerimeter;outlineConnect=0;targetShapes=umlLifeline;portConstraint=eastwest;newEdgeStyle={&quot;edgeStyle&quot;:&quot;elbowEdgeStyle&quot;,&quot;elbow&quot;:&quot;vertical&quot;,&quot;curved&quot;:0,&quot;rounded&quot;:0};" vertex="1" parent="Lcm0hkVv3pNYCc9iG2gG-71">
          <mxGeometry x="53" y="867.5" width="22" height="57.5" as="geometry" />
        </mxCell>
        <mxCell id="Lcm0hkVv3pNYCc9iG2gG-74" value="3.6 forceStopPackage()&amp;nbsp;" style="html=1;verticalAlign=bottom;endArrow=block;edgeStyle=elbowEdgeStyle;elbow=vertical;curved=0;rounded=0;" edge="1" parent="1">
          <mxGeometry width="80" relative="1" as="geometry">
            <mxPoint x="422" y="915" as="sourcePoint" />
            <mxPoint x="1062" y="915" as="targetPoint" />
          </mxGeometry>
        </mxCell>
        <mxCell id="Lcm0hkVv3pNYCc9iG2gG-76" value="&lt;div style=&quot;text-align: left;&quot;&gt;不在多开白名单&lt;/div&gt;" style="shape=note;size=20;whiteSpace=wrap;html=1;fillColor=#FFFF00;" vertex="1" parent="1">
          <mxGeometry x="460" y="890" width="200" height="30" as="geometry" />
        </mxCell>
      </root>
    </mxGraphModel>
  </diagram>
</mxfile>
